<svg width="64" height="64" viewBox="0 0 64 64" fill="none" xmlns="http://www.w3.org/2000/svg">
  <rect width="64" height="64" rx="18" fill="#111111"/>
  <circle cx="32" cy="32" r="18" fill="#ffffff" opacity="0.08"/>
  <path d="M41.7 23.5C39.6 21.3 36.5 20 32.9 20C26.5 20 21.7 24.7 21.7 31.8C21.7 39.2 26.8 44 33.6 44C37 44 39.9 42.9 42.1 40.8L38.8 37.8C37.3 39.1 35.6 39.8 33.7 39.8C29.8 39.8 26.9 37 26.9 31.9C26.9 26.9 29.8 24.1 33.6 24.1C35.6 24.1 37.3 24.9 38.6 26.2L41.7 23.5Z" fill="#F4F1EB"/>
  <path d="M39.5 31.8C39.5 36 36.7 38.7 33.1 38.7C30.3 38.7 28.4 37.2 27.5 34.7H32.8V30.9H22.8C22.7 31.2 22.7 31.5 22.7 31.9C22.7 39.1 27.5 44 33.4 44C39.4 44 44.5 39.9 44.5 31.8H39.5Z" fill="#88A25D"/>
</svg>
